<?xml version="1.0" encoding="utf-8"?>
<!-- Generator: Adobe Illustrator 25.0.0, SVG Export Plug-In . SVG Version: 6.00 Build 0)  -->
<svg version="1.1" id="圖層_1" xmlns="http://www.w3.org/2000/svg" xmlns:xlink="http://www.w3.org/1999/xlink" x="0px" y="0px"
	 viewBox="0 0 191.7 256.8" style="enable-background:new 0 0 191.7 256.8;" xml:space="preserve">
<style type="text/css">
	.st0{fill:none;stroke:#ffffff;stroke-width:4;stroke-linecap:round;stroke-linejoin:round;stroke-miterlimit:10;}
	.st1{fill:#ffffff;}
	.st2{fill:none;stroke:#ffffff;stroke-width:2;stroke-linecap:round;stroke-linejoin:round;}
	.st3{fill:none;stroke:#ffffff;stroke-width:1.82;stroke-linecap:round;stroke-linejoin:round;}
</style>
<polyline class="st0" points="21,43.7 92.6,4.6 170.7,43.7 "/>
<line class="st0" x1="63.1" y1="20.7" x2="125.5" y2="20.7"/>
<polyline class="st0" points="155.4,69 155.4,36.8 110.2,36.8 33.6,36.8 33.6,163.2 63.1,144.1 92.6,187.1 "/>
<polyline class="st0" points="10.4,128.1 118.3,128.1 181.9,128.1 "/>
<polyline class="st0" points="13.9,136.1 63.5,136.1 92.6,136.1 "/>
<polyline class="st0" points="15.3,52.9 116.7,52.9 176.4,52.9 "/>
<polyline class="st0" points="8.6,69 118.6,69 183.4,69 "/>
<polyline class="st0" points="33.6,95.8 92.6,69 185.7,111.9 119.1,111.9 6,111.9 "/>
<line class="st0" x1="63.1" y1="111.9" x2="77.9" y2="128.1"/>
<polyline class="st0" points="155.4,128.1 155.4,144.1 107.4,144.1 "/>
<line class="st0" x1="125.8" y1="111.9" x2="140.6" y2="128.1"/>
<line class="st0" x1="107.4" y1="128.1" x2="107.4" y2="186.4"/>
<polyline class="st0" points="92.6,95.8 92.6,111.9 92.6,128.1 92.6,144.1 65.1,144.1 18.4,144.1 "/>
<path class="st1" d="M95.8,0C42.9,0,0,42.9,0,95.8s42.9,95.9,95.8,95.9s95.9-42.9,95.9-95.8c0,0,0,0,0,0C191.7,42.9,148.8,0,95.8,0z
	 M95.8,186.2c-49.9,0-90.4-40.5-90.4-90.4S45.9,5.4,95.8,5.4s90.4,40.5,90.4,90.4c0,0,0,0,0,0C186.2,145.8,145.8,186.2,95.8,186.2z"
	/>
<line class="st2" x1="67.2" y1="239.7" x2="82.5" y2="239.7"/>
<polyline class="st3" points="60.1,236.1 75.1,223.8 89.6,235.8 "/>
<line class="st3" x1="66.3" y1="231" x2="84" y2="231"/>
<line class="st2" x1="108.3" y1="227.4" x2="132.3" y2="227.4"/>
<polyline class="st2" points="67.2,244 82.5,244 82.5,236.1 67.2,236.1 67.2,255.8 77,244 82.5,255.8 "/>
<line class="st2" x1="106" y1="231" x2="110.6" y2="223.8"/>
<line class="st2" x1="114.9" y1="231" x2="113" y2="227.5"/>
<line class="st2" x1="128" y1="231" x2="126.1" y2="227.5"/>
<rect x="109.4" y="236.1" class="st3" width="9.7" height="7.9"/>
<polyline class="st3" points="109.4,244 109.4,255.8 116.3,244 119.1,255.8 "/>
<line class="st3" x1="109.4" y1="240.1" x2="119.1" y2="240.1"/>
<polyline class="st3" points="122.6,236.1 132.3,244 132.3,236.1 122.6,236.1 122.6,255.8 "/>
</svg>
